<?xml version="1.0" encoding="utf-8"?>
<!-- Generator: Adobe Illustrator 23.0.1, SVG Export Plug-In . SVG Version: 6.00 Build 0)  -->
<svg version="1.1" id="Layer_1" xmlns="http://www.w3.org/2000/svg" xmlns:xlink="http://www.w3.org/1999/xlink" x="0px" y="0px"
	 viewBox="0 0 565 166" width="960" height="266" style="enable-background:new 0 0 565 166;" xml:space="preserve">
<style type="text/css">
	.st0{fill:#FFFFFF;}
</style>
<path class="st0" d="M261.48,64.15c3.53,0,6.88,0,10.41,0c3.95,13.52,7.9,27.03,11.85,40.54c0.15,0.01,0.3,0.02,0.46,0.03
	c3.91-13.51,7.82-27.01,11.72-40.49c3.65,0,7.12,0,10.97,0c-5.94,17.92-11.8,35.58-17.69,53.34c-3.61,0-7.19,0-11.06,0
	c-3.78-12.68-7.59-25.46-11.39-38.23c-0.2,0-0.41,0-0.61,0.01c-3.82,12.71-7.64,25.41-11.49,38.21c-3.61,0-7.19,0-11.04,0
	c-5.83-17.65-11.68-35.38-17.62-53.34c3.96,0,7.6,0,11.38,0c3.93,13.43,7.87,26.87,11.81,40.32c0.17,0.03,0.34,0.06,0.51,0.09
	C253.59,91.19,257.51,77.75,261.48,64.15z"/>
<path class="st0" d="M48.43,24.79c0,2.52,0,4.35,0,5.82c-2.84,1.2-5.69,2.06-8.16,3.54c-3.54,2.13-4.74,5.91-4.65,9.73
	c0.14,6.32,1.06,12.62,1.26,18.94c0.16,5.1,1.25,10.19-0.21,15.35c-1.5,5.3-4.54,8.85-9.77,10.54c-0.59,0.19-1.16,0.44-1.73,0.69
	c-0.13,0.06-0.23,0.21-0.34,0.31c6.94,1.68,11.63,6.61,12.05,13.53c0.29,4.84-0.16,9.74-0.38,14.6c-0.27,5.94-1.09,11.89-0.86,17.81
	c0.26,6.72,2.57,10.74,11,11.87c1.29,0.17,1.98,0.7,1.87,2.15c-0.12,1.42-0.03,2.86-0.03,4.38c-6.86-0.16-13.57-0.52-19.09-4.85
	c-4.41-3.47-6.18-8.54-6.28-13.97c-0.13-6.84,0.23-13.69,0.42-20.54c0.1-3.49,0.36-6.97,0.46-10.46
	c0.19-7.18-4.57-10.53-10.37-11.43c-0.99-0.15-1.97-0.38-2.97-0.58c0-1.91,0-3.64,0-5.49c3.72-0.48,7.34-1.01,10.28-3.56
	c2.06-1.79,3.02-4.14,3.02-6.7c-0.02-7.01-0.31-14.01-0.42-21.02c-0.07-4.74-0.52-9.54,0.09-14.2c1.16-8.95,6.48-13.36,14.28-15.11
	C41.24,25.39,44.72,25.24,48.43,24.79z"/>
<path class="st0" d="M164.77,154.15c0-1.91,0-3.8,0-5.89c1.65-0.47,3.48-0.84,5.18-1.51c4.48-1.77,7.71-5.4,7.58-10.34
	c-0.19-6.73-1.13-13.45-1.25-20.18c-0.1-5.59-1.02-11.28,0.86-16.79c1.83-5.38,5.77-8.35,11.12-9.7c-2.05-1.06-4.15-1.94-6.01-3.16
	c-4.06-2.66-6.03-6.8-5.98-11.4c0.08-7.51,0.92-15.01,1.28-22.53c0.19-3.84,0.5-7.78-0.08-11.54c-0.84-5.41-3.98-8.28-9.97-9.58
	c-2.59-0.57-3.11-1.49-2.87-3.68c0.09-0.78,0.01-1.59,0.01-2.37c9.01-1.14,22.45,1.57,24.5,13.42c0.87,5.02,0.55,10.24,0.74,15.37
	c0.02,0.54-0.26,1.08-0.27,1.62c-0.18,6.29-0.4,12.58-0.47,18.87c-0.08,6.31,2.66,9.94,9.05,11.3c1.37,0.29,2.76,0.47,4.26,0.73
	c0,1.7,0,3.44,0,5.39c-1.75,0.39-3.58,0.71-5.36,1.2c-4.68,1.29-7.67,4.49-7.83,9.2c-0.26,7.31-0.02,14.67,0.47,21.97
	c0.39,5.87,0.89,11.67-0.97,17.37c-2.35,7.19-8.08,10.09-14.93,11.32C170.89,153.76,167.88,153.85,164.77,154.15z"/>
<path class="st0" d="M494.4,82.15c0-7.27,0-14.26,0-21.38c3.37,0,6.54,0,9.89,0c0,18.88,0,37.78,0,56.83c-3.21,0-6.43,0-9.81,0
	c0-1.73,0-3.38,0-5.54c-2.78,3.14-5.74,5.12-9.49,5.83c-10.84,2.04-21.21-3.42-23.23-15.09c-0.86-4.96-0.97-9.9,0.92-14.68
	c2.71-6.85,7.64-10.71,15.06-11.72c4.35-0.59,8.29,0.1,12.02,2.11C491.34,79.36,492.63,80.73,494.4,82.15z M482.79,109.6
	c7.01-0.4,11.53-5.08,11.51-12.31c-0.02-7.23-4.52-11.94-10.89-12.08c-7.64-0.17-11.34,4.94-11.9,11.87
	C470.97,103.73,476.53,109.56,482.79,109.6z"/>
<path class="st0" d="M398.31,80.37c-3.68-3.46-7.41-6.1-12.37-6.88c-5.05-0.8-9.34,0.68-13.21,3.54c-4.44,3.28-6.89,8.06-6.8,13.43
	c0.13,7.7,4.17,14.85,13.62,17.22c6.33,1.59,11.83-0.34,16.67-4.36c1.33-1.1,2.17-1.51,3.4,0.03c1.54,1.91,3.26,3.69,5.02,5.65
	c-7.47,7-15.99,10.58-26.44,8.84c-9.27-1.54-16.48-6.15-20.36-14.66c-6.96-15.26-0.93-32.28,15.9-38
	c10.73-3.65,20.77-1.2,29.56,5.96c0.44,0.36,0.68,1.68,0.38,2.12C402.03,75.65,400.2,77.91,398.31,80.37z"/>
<path class="st0" d="M546.5,105.13c1.58,1.64,3.02,3.25,4.6,4.72c0.97,0.9,0.73,1.66-0.05,2.34c-8.02,7-20.09,8.41-29.41,2.53
	c-4.58-2.89-7.19-7.53-8.1-13.11c-0.88-5.36-0.16-10.31,2.25-15.11c3.07-6.09,8.25-9.28,14.76-9.91c4.58-0.45,9.26-0.53,13.71,1.73
	c5.26,2.66,8,7.02,9.1,12.46c0.65,3.21,0.53,6.58,0.77,10.14c-10.21,0-20.01,0-29.83,0C525.17,110.08,536.28,112.2,546.5,105.13z
	 M544.13,93.67c0.18-4.09-3.54-8.59-7.45-9.02c-7.11-0.78-11.84,2.54-12.81,9.02C530.63,93.67,537.38,93.67,544.13,93.67z"/>
<path class="st0" d="M345.41,111.28c-3.77,4.08-8.66,6.28-14.13,6.77c-7.28,0.65-14.12-0.65-19.34-6.47
	c-3.03-3.38-4.25-7.38-4.76-11.85c-0.62-5.52,0.37-10.57,3.5-15.04c3.62-5.16,8.72-8.01,15.1-8.09c3-0.04,6.08,0.02,8.99,0.68
	c6.92,1.55,10.71,6.42,12.13,13.09c0.7,3.32,0.69,6.79,1.03,10.54c-10.48,0-20.26,0-30.07,0c0.83,8.05,12.52,12.79,22,4.49
	C341.64,107.29,343.43,109.19,345.41,111.28z M337.75,93.71c0.76-4.51-3.38-8.79-7.73-9.14c-7.2-0.57-12.29,3.24-12.31,9.14
	C324.4,93.71,331.09,93.71,337.75,93.71z"/>
<path class="st0" d="M50.84,125.18c8.39-10.76,16.58-21.27,24.79-31.77c3.65-4.66,7.33-9.31,11.01-13.94c1-1.26,0.66-2.37,0.04-3.71
	c-3.43-7.47-6.73-15-10.16-22.47c-0.62-1.34-0.36-2.01,0.96-2.51c1.33-0.5,2.65-1.04,3.92-1.67c4.04-1.99,4.07-2.02,5.89,2
	c4.02,8.92,7.94,17.89,12.02,26.79c0.78,1.7,0,2.76-0.86,3.86c-10.15,12.93-20.33,25.82-30.48,38.74c-2.53,3.23-4.92,6.58-7.49,9.77
	c-0.44,0.55-1.85,1.07-2.23,0.8C55.7,129.24,53.31,127.19,50.84,125.18z"/>
<path class="st0" d="M162.34,125.17c-2.81,2.26-5.49,4.42-8.32,6.7c-2.84-3.56-5.53-6.86-8.15-10.22
	c-4.97-6.36-9.88-12.76-14.86-19.12c-5.41-6.91-10.79-13.85-16.32-20.66c-1.64-2.02-1.05-3.56-0.07-5.57
	c2.28-4.68,4.26-9.51,6.38-14.26c2.13-4.76,4.28-9.51,6.64-14.74c3.25,1.45,6.41,2.86,9.72,4.35c-3.73,8.28-7.29,16.29-10.98,24.22
	c-0.75,1.62-0.59,2.71,0.49,4.07c4.96,6.26,9.8,12.62,14.73,18.91C148.39,107.5,155.21,116.12,162.34,125.17z"/>
<path class="st0" d="M431.9,76.27c6.07-0.24,11.52,1.46,15.8,5.68c6.05,5.97,7.15,13.48,5.13,21.43
	c-2.45,9.63-10.06,14.45-19.45,14.84c-6.07,0.25-11.68-1.04-16.47-5.13c-3.63-3.1-5.89-7.03-6.37-11.61
	c-0.38-3.64-0.18-7.52,0.7-11.06c1.84-7.36,7.09-11.62,14.32-13.41C427.6,76.5,429.78,76.5,431.9,76.27z M443.04,97.48
	c0-0.4,0-0.8,0-1.2c-0.04-4.62-2.84-8.81-7.15-10.38c-4.38-1.6-8.84-0.6-12.07,2.87c-3.15,3.39-3.62,7.44-2.87,11.83
	c0.85,4.92,6.95,9.73,11.74,8.96C439.34,108.49,443.1,104.35,443.04,97.48z"/>
<path class="st0" d="M92.73,19.49C92.86,11.67,99,5.54,106.56,5.56c7.75,0.02,13.85,6.23,13.8,13.91
	c-0.06,7.78-6.48,13.65-13.53,13.71C98.66,33.26,92.78,26.47,92.73,19.49z"/>
</svg>
